<svg width="24" height="24" viewBox="0 0 24 24" fill="none" xmlns="http://www.w3.org/2000/svg">
<path d="M16 5C16 4.44772 16.4477 4 17 4H19C19.5523 4 20 4.44772 20 5V9C20 9.55228 19.5523 10 19 10H17C16.4477 10 16 9.55228 16 9V5ZM4 15C4 14.4477 4.44772 14 5 14H7C7.55228 14 8 14.4477 8 15V19C8 19.5523 7.55228 20 7 20H5C4.44772 20 4 19.5523 4 19V15ZM4 5C4 4.44772 4.44772 4 5 4H11C11.5523 4 12 4.44772 12 5V9C12 9.55228 11.5523 10 11 10H5C4.44772 10 4 9.55228 4 9V5ZM12 15C12 14.4477 12.4477 14 13 14H19C19.5523 14 20 14.4477 20 15V19C20 19.5523 19.5523 20 19 20H13C12.4477 20 12 19.5523 12 19V15Z" stroke="#4729FF" stroke-width="2" stroke-linecap="round" stroke-linejoin="round"/>
</svg>
