<svg xmlns="http://www.w3.org/2000/svg" viewBox="0 0 397 377"><path fill="#cc5440" d="M306.19,103.29s22.6,4.48,33,34.91S360.74,283.32,285.35,309Z" data-name="&lt;Path&gt;"/><g data-name="&lt;Group&gt;"><path fill="#cc5440" d="M305.35,68.76c5,4.19,5.63,15.31,5,21-.67,5.92-3.17,8.89-6.95,13.39-1.9,2.26-2.13,1.95-3.07,4.64-.41,1.16,1.34,2,2.24,1.7,10.6-3.6,13.68-17.91,11.76-27.57-.95-4.77-3.19-13-8.73-14.3-.57-.13-.51.9-.23,1.14Z" data-name="&lt;Path&gt;"/></g><path fill="#cc5440" d="M331.69,103.72c-3.15-9.4-23.61-4.7-28.12.57-.7.82-1.9,2.42-1.52,3.57,1.26,3.85,8.45-1.17,9.82-1.7,4.66-1.79,14.57-4.36,19.34-1.76C331.62,104.62,331.79,104,331.69,103.72Z" data-name="&lt;Path&gt;"/><path fill="#cc5440" d="M306.19 103.29s1.13-50.71-71.57-66.45c-78.74-17-138 6.81-175.75 55.41-30.42 39.17-39 129.62 13.18 132.4S306.19 103.29 306.19 103.29zM285.35 309c17-12.6 44.16-28.57 43.95-127H295.88z" data-name="&lt;Path&gt;"/><path fill="#ffc8ac" d="M188.87,335.31c33.49,0,72.56-4,96.48-26.31s26.31-79.73,12-136.34-69.37-69.37-108.44-69.37S94.79,116.05,80.44,172.66s-12,114,12,136.34S155.39,335.31,188.87,335.31Z" data-name="&lt;Path&gt;"/><path fill="#fca39a" d="M76.5 273.9A24.06 24.06 0 1 1 100.56 298 24.06 24.06 0 0 1 76.5 273.9zM247.77 273.9a24.06 24.06 0 1 1 24 24.06A24.05 24.05 0 0 1 247.77 273.9z" data-name="&lt;Path&gt;"/><path fill="#cc5440" d="M262.23,122.48s4.68,44.19,16.3,59-52.56,11.74-66.95-39c0,0,9.54,40.61.25,46.77s-78.12,7.16-100.91-63.51Z" data-name="&lt;Path&gt;"/><path fill="#fca39a" d="M183.12,261.05c-8.75-.3-16.65,5.25-16.6,7.85.12,6.08,31.11,7.32,30.78,0C197.12,264.82,190.63,261.3,183.12,261.05Z" data-name="&lt;Path&gt;"/><g data-name="&lt;Group&gt;"><path fill="#9e5147" d="M165.73,270.54c5.49-4.12,9.49-8.22,17-8.24,6.9,0,10.57,3.68,14.35,8.81.65.88,2.32.92,2.15-.47-1.91-15.54-29.8-14.1-33.8-.55-.06.18.05.64.32.45Z" data-name="&lt;Path&gt;"/></g><g data-name="&lt;Group&gt;"><path fill="#fff" d="M246.57,193.41c-11.57,0-28.6,6.92-33.52,23.55-6,20.22,6.43,39.86,33.52,38.9,29.07-1,39.35-18.3,36.24-34.33C279.47,204.35,266.85,193.48,246.57,193.41Z" data-name="&lt;Path&gt;"/><g data-name="&lt;Group&gt;"><path fill="#002030" d="M212.59,220.52c5.4-16.31,24-26.38,40.61-23,6.71,1.35,13.95,5.05,18.4,10.34,5,5.91,5.67,13.6,10.33,19.5.74.93,2.67,1.49,3.35.17,4.34-8.47-2.43-19.52-8.48-25.62-6.3-6.38-15.75-10.63-24.61-11.66a42.14,42.14,0,0,0-26.78,5.89c-9.29,5.92-11.94,13.65-13.57,24.15-.09.59.52.95.75.27Z" data-name="&lt;Path&gt;"/></g><path fill="#19313a" d="M215,229.8a26.09,26.09,0,1,1,26.08,26.09A26.08,26.08,0,0,1,215,229.8Z" data-name="&lt;Path&gt;"/><path fill="#fff" d="M220.82,227.44a8.34,8.34,0,1,1,8.34,8.33A8.34,8.34,0,0,1,220.82,227.44Z" data-name="&lt;Path&gt;"/></g><g data-name="&lt;Group&gt;"><path fill="#fff" d="M126.66,193.41c11.57,0,28.6,6.92,33.52,23.55,6,20.22-6.43,39.86-33.52,38.9-29.07-1-39.35-18.3-36.24-34.33C93.76,204.35,106.38,193.48,126.66,193.41Z" data-name="&lt;Path&gt;"/><g data-name="&lt;Group&gt;"><path fill="#002030" d="M161.38,220c-1.75-10.86-6.21-19.34-16.08-25a40.34,40.34,0,0,0-30.9-3.45c-7.12,2.13-14.41,6.11-19.31,11.79s-11.78,16.08-6.93,23.42c.79,1.19,2.74,2.28,3.75.7,3.14-4.92,3.91-10.78,7-15.79,3.44-5.58,8.25-9.26,14.2-11.92,18.27-8.16,41.31,1.31,47.52,20.78.25.8.84,0,.76-.52Z" data-name="&lt;Path&gt;"/></g><path fill="#19313a" d="M158.21,229.8a26.09,26.09,0,1,0-26.08,26.09A26.08,26.08,0,0,0,158.21,229.8Z" data-name="&lt;Path&gt;"/><circle cx="120.41" cy="227.44" r="8.34" fill="#fff" data-name="&lt;Path&gt;"/></g><g data-name="&lt;Group&gt;"><path fill="#a03717" d="M270.4,181.17a3,3,0,0,0,.17-1.68c-.64-2.92-2.27-5.08-4.26-7.27a37.17,37.17,0,0,0-9.44-7.23,41.32,41.32,0,0,0-22.25-5.28,10,10,0,0,0-4.24.94,5.79,5.79,0,0,0-3,4.56c-.25,3.49,2.54,5.11,5.61,5.58l7,1.05c1.7.26,3.4.52,5.08.86a52.49,52.49,0,0,1,16.08,6.12c2,1.2,4.09,2.56,6.42,3.05C268.4,182,270,182.21,270.4,181.17Z" data-name="&lt;Path&gt;"/></g><g data-name="&lt;Group&gt;"><path fill="#a03717" d="M102.25,178.62a3,3,0,0,1,0-1.69c.87-2.87,2.66-4.89,4.81-6.91a37.43,37.43,0,0,1,10-6.49A41.34,41.34,0,0,1,139.58,160a9.86,9.86,0,0,1,4.15,1.27,5.77,5.77,0,0,1,2.6,4.77c0,3.5-2.93,4.9-6,5.13l-7,.51c-1.72.12-3.43.25-5.14.46a52.72,52.72,0,0,0-16.5,4.86c-2.14,1-4.27,2.24-6.64,2.55C104.17,179.65,102.56,179.69,102.25,178.62Z" data-name="&lt;Path&gt;"/></g><path fill="#ffc8ac" d="M303.72,205.36c3.87-12.29,20.78-29.57,40.33-22.06s24.05,36.84,13.15,58.64-40.64,29.78-51.7,13.95Z" data-name="&lt;Path&gt;"/><path fill="#9e5147" d="M302.62,220.73c-.24.73.75,2.29,1.61,1.72,3.68-2.42,6.31-5.95,10.16-8.13a22,22,0,0,1,13.39-2.53c2.16,3,4.09,5.28,3.63,9.86a20,20,0,0,1-4.83,11.3c-2.16,2.3-5.43,3-8.08,4.54-.2.12-.41.76-.07.84,12.57,3.07,21-14.42,17.13-24.54,7.09,3,12.95,8.92,12.58,17.23,0,.39.39.3.5,0C359,205,310.78,195.84,302.62,220.73Z" data-name="&lt;Path&gt;"/><path fill="#cc5440" d="M299.81,183.3S276,163.52,262.23,122.48l-36.47,15.18a110.34,110.34,0,0,1-83.21.65l-31.63-12.6c-6.39,7.64-31.84,17.41-38.87,98.94,0,0-18-70.34,14.45-116.73s89.92-54.18,154.6-42.54c43.46,7.82,90.66,42,88.2,116.62-4.49,32.37-21.27,50.75-24.83,44.67s-2.93-34.78-4.66-43.37L329.3,182" data-name="&lt;Path&gt;"/><g data-name="&lt;Group&gt;"><path fill="#9e5147" d="M159.58,299.69c20.14,12,53.47,6.8,69.15-10.24,1.67-1.82-2-3.57-3.44-1.95-15.77,17.2-45,18.87-65.47,10.55-1.13-.46-1,1.22-.24,1.64Z" data-name="&lt;Path&gt;"/></g><g data-name="&lt;Group&gt;"><path fill="#9e5147" d="M225,281.68c-2,2,.05,5.6,1.66,7.1,1.85,1.72,5.07,3.35,7.65,2.45.87-.31,1.82-1.37.85-2.22-.75-.67-2.6-.08-3.59-.29-3.6-.76-4.66-3.74-5.77-6.8-.14-.36-.52-.52-.8-.24Z" data-name="&lt;Path&gt;"/></g></svg>